<mxfile>
    <diagram id="SJrw_LUZ_Y_HDIkRMcB1" name="Page-1">
        <mxGraphModel dx="940" dy="378" grid="1" gridSize="10" guides="1" tooltips="1" connect="1" arrows="1" fold="1" page="1" pageScale="1" pageWidth="850" pageHeight="1100" math="0" shadow="0">
            <root>
                <mxCell id="4K3nKACWAKaTWBSXyefh-0"/>
                <mxCell id="4K3nKACWAKaTWBSXyefh-1" parent="4K3nKACWAKaTWBSXyefh-0"/>
                <mxCell id="74MOIgDQ9q423ZkZJ6v7-24" style="edgeStyle=orthogonalEdgeStyle;rounded=0;orthogonalLoop=1;jettySize=auto;html=1;exitX=1;exitY=0.5;exitDx=0;exitDy=0;" edge="1" parent="4K3nKACWAKaTWBSXyefh-1" source="74MOIgDQ9q423ZkZJ6v7-0">
                    <mxGeometry relative="1" as="geometry">
                        <mxPoint x="310" y="110" as="targetPoint"/>
                    </mxGeometry>
                </mxCell>
                <mxCell id="74MOIgDQ9q423ZkZJ6v7-0" value="REQ DTO" style="rounded=0;whiteSpace=wrap;html=1;" vertex="1" parent="4K3nKACWAKaTWBSXyefh-1">
                    <mxGeometry x="120" y="80" width="120" height="60" as="geometry"/>
                </mxCell>
                <mxCell id="74MOIgDQ9q423ZkZJ6v7-22" style="edgeStyle=orthogonalEdgeStyle;rounded=0;orthogonalLoop=1;jettySize=auto;html=1;exitX=1;exitY=0.5;exitDx=0;exitDy=0;entryX=0;entryY=0.5;entryDx=0;entryDy=0;" edge="1" parent="4K3nKACWAKaTWBSXyefh-1" source="74MOIgDQ9q423ZkZJ6v7-1" target="74MOIgDQ9q423ZkZJ6v7-20">
                    <mxGeometry relative="1" as="geometry"/>
                </mxCell>
                <mxCell id="74MOIgDQ9q423ZkZJ6v7-1" value="CONTROLLER" style="rounded=0;whiteSpace=wrap;html=1;fillColor=#d80073;strokeColor=#A50040;fontColor=#ffffff;" vertex="1" parent="4K3nKACWAKaTWBSXyefh-1">
                    <mxGeometry x="320" y="80" width="120" height="60" as="geometry"/>
                </mxCell>
                <mxCell id="74MOIgDQ9q423ZkZJ6v7-14" style="edgeStyle=orthogonalEdgeStyle;rounded=0;orthogonalLoop=1;jettySize=auto;html=1;exitX=1;exitY=0.5;exitDx=0;exitDy=0;entryX=0;entryY=0.5;entryDx=0;entryDy=0;" edge="1" parent="4K3nKACWAKaTWBSXyefh-1" target="74MOIgDQ9q423ZkZJ6v7-13">
                    <mxGeometry relative="1" as="geometry">
                        <mxPoint x="560" y="150" as="sourcePoint"/>
                    </mxGeometry>
                </mxCell>
                <mxCell id="74MOIgDQ9q423ZkZJ6v7-15" value="HTTP" style="edgeLabel;html=1;align=center;verticalAlign=middle;resizable=0;points=[];" vertex="1" connectable="0" parent="74MOIgDQ9q423ZkZJ6v7-14">
                    <mxGeometry x="-0.1394" relative="1" as="geometry">
                        <mxPoint as="offset"/>
                    </mxGeometry>
                </mxCell>
                <mxCell id="74MOIgDQ9q423ZkZJ6v7-23" style="edgeStyle=orthogonalEdgeStyle;rounded=0;orthogonalLoop=1;jettySize=auto;html=1;exitX=1;exitY=0.5;exitDx=0;exitDy=0;" edge="1" parent="4K3nKACWAKaTWBSXyefh-1" source="74MOIgDQ9q423ZkZJ6v7-20">
                    <mxGeometry relative="1" as="geometry">
                        <mxPoint x="710" y="110" as="targetPoint"/>
                    </mxGeometry>
                </mxCell>
                <mxCell id="74MOIgDQ9q423ZkZJ6v7-20" value="SERVICE" style="rounded=0;whiteSpace=wrap;html=1;fillColor=#008a00;strokeColor=#005700;fontColor=#ffffff;" vertex="1" parent="4K3nKACWAKaTWBSXyefh-1">
                    <mxGeometry x="510" y="80" width="120" height="60" as="geometry"/>
                </mxCell>
                <mxCell id="74MOIgDQ9q423ZkZJ6v7-27" style="edgeStyle=orthogonalEdgeStyle;rounded=0;orthogonalLoop=1;jettySize=auto;html=1;exitX=0.5;exitY=1;exitDx=0;exitDy=0;entryX=0.5;entryY=0;entryDx=0;entryDy=0;" edge="1" parent="4K3nKACWAKaTWBSXyefh-1" source="74MOIgDQ9q423ZkZJ6v7-21" target="74MOIgDQ9q423ZkZJ6v7-26">
                    <mxGeometry relative="1" as="geometry"/>
                </mxCell>
                <mxCell id="74MOIgDQ9q423ZkZJ6v7-21" value="ELASTIC &lt;br&gt;SEARCH" style="rounded=0;whiteSpace=wrap;html=1;fillColor=#6a00ff;strokeColor=#3700CC;fontColor=#ffffff;" vertex="1" parent="4K3nKACWAKaTWBSXyefh-1">
                    <mxGeometry x="720" y="80" width="120" height="60" as="geometry"/>
                </mxCell>
                <mxCell id="74MOIgDQ9q423ZkZJ6v7-25" value="post/_doc&lt;br&gt;Index" style="rounded=0;whiteSpace=wrap;html=1;fillColor=#6a00ff;strokeColor=#3700CC;fontColor=#ffffff;" vertex="1" parent="4K3nKACWAKaTWBSXyefh-1">
                    <mxGeometry x="520" y="200" width="120" height="60" as="geometry"/>
                </mxCell>
                <mxCell id="74MOIgDQ9q423ZkZJ6v7-28" style="edgeStyle=orthogonalEdgeStyle;rounded=0;orthogonalLoop=1;jettySize=auto;html=1;exitX=0;exitY=0.5;exitDx=0;exitDy=0;entryX=1;entryY=0.5;entryDx=0;entryDy=0;" edge="1" parent="4K3nKACWAKaTWBSXyefh-1" source="74MOIgDQ9q423ZkZJ6v7-26" target="74MOIgDQ9q423ZkZJ6v7-25">
                    <mxGeometry relative="1" as="geometry"/>
                </mxCell>
                <mxCell id="74MOIgDQ9q423ZkZJ6v7-26" value="Query&amp;nbsp;&lt;br&gt;Match" style="rounded=0;whiteSpace=wrap;html=1;fillColor=#6a00ff;strokeColor=#3700CC;fontColor=#ffffff;" vertex="1" parent="4K3nKACWAKaTWBSXyefh-1">
                    <mxGeometry x="720" y="200" width="120" height="60" as="geometry"/>
                </mxCell>
                <mxCell id="74MOIgDQ9q423ZkZJ6v7-29" value="Schema&amp;nbsp;&lt;br&gt;Mapping" style="ellipse;shape=cloud;whiteSpace=wrap;html=1;fillColor=#d80073;strokeColor=#A50040;fontColor=#ffffff;" vertex="1" parent="4K3nKACWAKaTWBSXyefh-1">
                    <mxGeometry x="440" y="250" width="120" height="80" as="geometry"/>
                </mxCell>
                <mxCell id="74MOIgDQ9q423ZkZJ6v7-31" style="edgeStyle=orthogonalEdgeStyle;rounded=0;orthogonalLoop=1;jettySize=auto;html=1;exitX=0.5;exitY=0;exitDx=0;exitDy=0;exitPerimeter=0;" edge="1" parent="4K3nKACWAKaTWBSXyefh-1" source="74MOIgDQ9q423ZkZJ6v7-30">
                    <mxGeometry relative="1" as="geometry">
                        <mxPoint x="180" y="150" as="targetPoint"/>
                    </mxGeometry>
                </mxCell>
                <mxCell id="74MOIgDQ9q423ZkZJ6v7-30" value="Actor" style="shape=umlActor;verticalLabelPosition=bottom;verticalAlign=top;html=1;outlineConnect=0;" vertex="1" parent="4K3nKACWAKaTWBSXyefh-1">
                    <mxGeometry x="165" y="230" width="30" height="60" as="geometry"/>
                </mxCell>
                <mxCell id="74MOIgDQ9q423ZkZJ6v7-32" value="validation Pipe" style="text;html=1;strokeColor=none;fillColor=none;align=center;verticalAlign=middle;whiteSpace=wrap;rounded=0;" vertex="1" parent="4K3nKACWAKaTWBSXyefh-1">
                    <mxGeometry x="120" y="60" width="120" height="20" as="geometry"/>
                </mxCell>
            </root>
        </mxGraphModel>
    </diagram>
</mxfile>